<?xml version="1.0" encoding="utf-8"?>
<svg xmlns="http://www.w3.org/2000/svg" viewBox="-244.32 -468.3673 1034.7301 1202.6835" width="1034.73px" height="1202.68px">
  <path d="M 275.867 -467.68 C 277.751 -466.79 279.599 -465.82 281.418 -464.8 C 282.497 -464.2 283.575 -463.59 284.687 -462.98 C 285.851 -462.32 287.016 -461.66 288.18 -461 C 289.392 -460.32 290.605 -459.64 291.818 -458.96 C 300.626 -454 309.365 -448.94 318.079 -443.82 C 327.694 -438.18 337.403 -432.71 347.116 -427.24 C 360.367 -419.76 373.543 -412.15 386.718 -404.53 C 395.385 -399.53 404.073 -394.57 412.768 -389.61 C 420.893 -384.98 428.986 -380.29 437.055 -375.56 C 446.142 -370.23 455.305 -365.06 464.508 -359.94 C 472.73 -355.35 480.868 -350.63 488.989 -345.86 C 495.746 -341.9 502.541 -338.02 509.367 -334.18 C 517.204 -329.78 524.989 -325.3 532.742 -320.75 C 541.043 -315.88 549.398 -311.12 557.805 -306.43 C 565.308 -302.25 572.767 -298.02 580.151 -293.64 C 586.787 -289.71 593.481 -285.88 600.18 -282.06 C 600.777 -281.72 601.373 -281.38 601.988 -281.03 C 605.055 -279.28 608.123 -277.53 611.19 -275.78 C 616.506 -272.75 621.818 -269.71 627.13 -266.68 C 630.033 -265.02 632.937 -263.36 635.84 -261.7 C 637.006 -261.03 638.171 -260.37 639.337 -259.7 C 639.917 -259.37 640.497 -259.04 641.095 -258.7 C 646.48 -255.62 646.48 -255.62 648.297 -254.58 C 649.505 -253.89 650.713 -253.2 651.922 -252.51 C 654.9 -250.81 657.877 -249.11 660.855 -247.41 C 666.029 -244.45 671.203 -241.49 676.379 -238.54 C 685.744 -233.2 695.094 -227.83 704.43 -222.43 C 723.048 -211.68 741.7 -200.99 760.444 -190.46 C 762.132 -189.51 763.807 -188.53 765.466 -187.53 C 768.159 -186.07 770.684 -184.94 773.516 -183.81 C 786.162 -178.36 786.162 -178.36 788.976 -172.3 C 790.795 -165.03 790.406 -157.55 790.26 -150.12 C 790.28 -147.58 790.308 -145.05 790.343 -142.51 C 790.402 -137.01 790.401 -131.5 790.348 -126 C 790.269 -117.81 790.299 -109.63 790.351 -101.44 C 790.439 -86.818 790.419 -72.198 790.354 -57.575 C 790.297 -44.78 790.277 -31.985 790.293 -19.19 C 790.294 -18.341 790.295 -17.492 790.296 -16.617 C 790.3 -13.171 790.305 -9.724 790.309 -6.278 C 790.352 26.046 790.286 58.369 790.17 90.693 C 790.067 119.408 790.054 148.122 790.118 176.837 C 790.135 184.19 790.151 191.544 790.166 198.898 C 790.168 199.803 790.17 200.708 790.172 201.641 C 790.22 225.639 790.194 249.638 790.146 273.636 C 790.14 276.219 790.135 278.801 790.13 281.383 C 790.127 283.096 790.124 284.809 790.12 286.522 C 790.095 299.31 790.108 312.097 790.14 324.885 C 790.175 339.425 790.153 353.964 790.054 368.504 C 790.001 376.641 789.991 384.776 790.045 392.913 C 790.08 398.988 790.031 405.06 789.95 411.135 C 789.93 413.593 789.937 416.051 789.973 418.509 C 790.219 436.416 790.219 436.416 786.301 441.248 C 782.544 444.496 778.408 446.58 773.84 448.459 C 770.881 449.744 768.304 451.438 765.602 453.195 C 763.608 454.423 761.613 455.651 759.617 456.878 C 758.525 457.55 757.433 458.222 756.308 458.915 C 747.484 464.34 738.629 469.716 729.77 475.085 C 718.759 481.759 707.803 488.518 696.867 495.316 C 685.226 502.547 673.563 509.741 661.845 516.848 C 656.484 520.103 651.138 523.381 645.809 526.687 C 644.62 527.424 643.43 528.16 642.241 528.897 C 639.952 530.315 637.667 531.737 635.382 533.163 C 633.824 534.128 633.824 534.128 632.235 535.113 C 631.318 535.684 630.401 536.254 629.457 536.842 C 626.867 538.316 626.867 538.316 621.867 540.316 C 621.867 433.396 621.867 326.476 621.867 216.316 C 613.947 220.936 606.027 225.556 597.867 230.316 C 593.599 232.779 589.329 235.238 585.055 237.691 C 576.118 242.832 567.228 248.046 558.367 253.316 C 546.352 260.461 534.263 267.472 522.141 274.435 C 502.155 285.914 502.155 285.914 482.26 297.549 C 476.287 301.074 470.297 304.572 464.305 308.066 C 463.289 308.658 462.273 309.251 461.227 309.861 C 456.075 312.864 450.923 315.866 445.77 318.867 C 444.759 319.455 443.749 320.044 442.708 320.651 C 440.844 321.737 438.98 322.822 437.115 323.907 C 435.286 324.973 433.475 326.069 431.68 327.191 C 428.721 328.95 425.698 330.204 422.499 331.467 C 411.61 336.162 411.61 336.162 404.613 345.254 C 402.771 353.535 403.125 361.998 403.42 370.423 C 403.53 374.275 403.511 378.126 403.508 381.979 C 403.52 388.644 403.61 395.304 403.754 401.968 C 403.96 411.61 404.031 421.249 404.067 430.893 C 404.129 446.553 404.279 462.209 404.495 477.867 C 404.514 479.27 404.514 479.27 404.534 480.702 C 404.56 482.596 404.586 484.489 404.612 486.383 C 404.631 487.791 404.631 487.791 404.651 489.228 C 404.67 490.637 404.67 490.637 404.69 492.075 C 404.833 502.522 404.954 512.969 405.067 523.417 C 405.077 524.353 405.087 525.289 405.098 526.253 C 405.265 541.861 405.38 557.469 405.465 573.078 C 405.52 582.697 405.627 592.314 405.801 601.932 C 405.918 608.519 405.99 615.104 406.027 621.691 C 406.051 625.491 406.096 629.288 406.198 633.087 C 406.779 655.29 406.779 655.29 403.627 660.28 C 400.231 663.648 396.411 664.926 391.867 666.316 C 389.878 667.39 387.909 668.501 385.973 669.667 C 384.001 670.761 382.029 671.852 380.055 672.941 C 370.669 678.158 361.363 683.491 352.101 688.924 C 344.387 693.443 336.635 697.891 328.867 702.316 C 319.947 707.4 311.048 712.517 302.18 717.691 C 301.2 718.259 300.221 718.828 299.212 719.414 C 294.701 722.039 290.225 724.699 285.809 727.48 C 285.032 727.962 284.255 728.443 283.454 728.939 C 282.031 729.825 280.617 730.728 279.216 731.649 C 277.328 732.816 277.328 732.816 273.867 734.316 C 269.671 733.266 266.157 731.505 262.438 729.332 C 261.408 728.733 260.378 728.135 259.317 727.519 C 257.671 726.552 257.671 726.552 255.992 725.566 C 254.829 724.888 253.664 724.21 252.5 723.532 C 249.521 721.798 246.545 720.057 243.572 718.314 C 239.048 715.664 234.52 713.022 229.992 710.378 C 228.535 709.526 228.535 709.526 227.047 708.656 C 219.388 704.185 211.696 699.772 203.992 695.378 C 194.857 690.168 185.728 684.945 176.617 679.691 C 175.687 679.155 174.756 678.619 173.798 678.066 C 171.84 676.936 169.9 675.776 167.978 674.588 C 164.767 672.702 161.477 671.323 158.025 669.933 C 141.974 662.917 141.974 662.917 138.488 655.304 C 136.464 646.959 136.794 638.411 137.082 629.891 C 137.186 626.011 137.15 622.132 137.132 618.251 C 137.12 611.541 137.194 604.837 137.33 598.129 C 137.526 588.43 137.588 578.735 137.618 569.035 C 137.67 553.296 137.829 537.56 138.057 521.823 C 138.277 506.543 138.447 491.265 138.549 475.984 C 138.555 475.041 138.562 474.097 138.568 473.126 C 138.6 468.394 138.63 463.661 138.66 458.929 C 138.908 419.723 139.331 380.52 139.867 341.316 C 139.089 341.01 138.31 340.704 137.508 340.389 C 134.973 339.359 132.678 338.184 130.297 336.839 C 129.415 336.342 128.532 335.844 127.623 335.332 C 126.197 334.519 126.197 334.519 124.742 333.691 C 123.738 333.121 122.733 332.551 121.698 331.964 C 113.287 327.173 104.959 322.246 96.645 317.289 C 88.94 312.697 81.193 308.199 73.367 303.816 C 63.864 298.491 54.487 292.973 45.127 287.4 C 33.11 280.252 20.992 273.281 8.867 266.316 C -4.39 258.695 -17.63 251.051 -30.779 243.245 C -39.187 238.262 -47.652 233.381 -56.129 228.515 C -57.156 227.925 -58.183 227.334 -59.242 226.726 C -60.139 226.212 -61.036 225.698 -61.96 225.168 C -66.375 222.591 -70.749 219.946 -75.133 217.316 C -75.628 377.201 -75.628 377.201 -76.133 540.316 C -79.652 538.908 -82.496 537.629 -85.695 535.734 C -86.563 535.221 -87.431 534.708 -88.325 534.18 C -89.251 533.627 -90.178 533.073 -91.133 532.503 C -92.596 531.634 -92.596 531.634 -94.089 530.747 C -103.22 525.298 -112.27 519.701 -121.3 514.079 C -126.52 510.83 -131.77 507.604 -137.01 504.378 C -138.1 503.704 -139.2 503.03 -140.33 502.335 C -148.47 497.329 -156.63 492.356 -164.8 487.394 C -171.96 483.038 -179.1 478.632 -186.22 474.21 C -193.62 469.619 -201.06 465.091 -208.51 460.571 C -216.16 455.918 -223.79 451.216 -231.4 446.49 C -232.62 445.733 -232.62 445.733 -233.86 444.96 C -234.57 444.521 -235.27 444.081 -236 443.628 C -238.13 442.219 -238.13 442.219 -240.73 441.354 C -243.13 439.316 -243.13 439.316 -243.6 437.392 C -243.78 434.714 -243.8 432.075 -243.77 429.39 C -243.78 428.353 -243.79 427.317 -243.8 426.249 C -243.82 422.74 -243.81 419.232 -243.79 415.724 C -243.8 413.197 -243.81 410.67 -243.83 408.143 C -243.85 402.631 -243.86 397.12 -243.85 391.608 C -243.84 383.412 -243.86 375.216 -243.88 367.019 C -243.93 351.531 -243.94 336.042 -243.94 320.554 C -243.94 308.595 -243.94 296.636 -243.96 284.677 C -243.96 281.238 -243.97 277.799 -243.97 274.36 C -243.97 273.506 -243.97 272.651 -243.97 271.77 C -244 247.715 -244.01 223.66 -244.01 199.605 C -244.01 198.243 -244.01 198.243 -244.01 196.855 C -244.01 192.255 -244.01 187.656 -244.01 183.056 C -244 182.142 -244 181.229 -244 180.288 C -244 178.44 -244 176.593 -244 174.745 C -244 145.999 -244.03 117.252 -244.09 88.506 C -244.15 56.229 -244.19 23.952 -244.18 -8.324 C -244.18 -11.764 -244.18 -15.204 -244.18 -18.644 C -244.18 -19.491 -244.18 -20.338 -244.18 -21.211 C -244.18 -34.013 -244.2 -46.814 -244.24 -59.616 C -244.28 -74.172 -244.28 -88.728 -244.25 -103.28 C -244.23 -111.44 -244.24 -119.58 -244.28 -127.73 C -244.31 -133.81 -244.3 -139.89 -244.26 -145.97 C -244.25 -148.43 -244.26 -150.9 -244.28 -153.36 C -244.32 -156.7 -244.29 -160.04 -244.25 -163.38 C -244.28 -164.35 -244.3 -165.31 -244.32 -166.31 C -244.22 -170.33 -244.14 -172.71 -241.16 -175.59 C -238.88 -177.13 -236.59 -178.44 -234.13 -179.68 C -233.1 -180.29 -232.07 -180.9 -231.01 -181.52 C -230.08 -182.03 -229.15 -182.54 -228.19 -183.06 C -226.59 -183.94 -226.59 -183.94 -224.96 -184.83 C -223.84 -185.44 -222.72 -186.06 -221.57 -186.68 C -219.16 -188.01 -216.74 -189.34 -214.33 -190.68 C -213.73 -191.01 -213.12 -191.35 -212.5 -191.69 C -206.57 -194.98 -200.72 -198.38 -194.88 -201.81 C -187.21 -206.31 -179.51 -210.76 -171.76 -215.12 C -163.63 -219.7 -155.52 -224.32 -147.44 -229 C -138.4 -234.23 -129.34 -239.44 -120.26 -244.62 C -119.39 -245.12 -119.39 -245.12 -118.5 -245.62 C -115.57 -247.3 -112.63 -248.97 -109.7 -250.65 C -103.1 -254.41 -96.507 -258.18 -89.913 -261.95 C -84.15 -265.25 -78.387 -268.54 -72.621 -271.83 C -62.155 -277.8 -51.711 -283.81 -41.277 -289.84 C -33.242 -294.48 -25.191 -299.09 -17.133 -303.68 C -8.119 -308.83 0.882 -313.99 9.867 -319.18 C 18.813 -324.35 27.771 -329.5 36.742 -334.62 C 37.322 -334.95 37.902 -335.28 38.499 -335.63 C 44.408 -339 50.318 -342.37 56.229 -345.74 C 59.192 -347.43 62.155 -349.12 65.117 -350.81 C 65.7 -351.14 66.283 -351.47 66.883 -351.82 C 74.97 -356.43 83.023 -361.1 91.055 -365.81 C 100.145 -371.14 109.313 -376.31 118.519 -381.44 C 126.621 -385.96 134.643 -390.61 142.646 -395.3 C 150.275 -399.77 157.937 -404.18 165.617 -408.56 C 166.199 -408.89 166.781 -409.22 167.381 -409.56 C 170.344 -411.26 173.308 -412.94 176.272 -414.63 C 181.691 -417.72 187.106 -420.82 192.522 -423.92 C 199.473 -427.89 206.424 -431.86 213.379 -435.83 C 221.857 -440.67 230.324 -445.52 238.774 -450.4 C 242.105 -452.33 245.439 -454.25 248.774 -456.17 C 252.498 -458.31 256.207 -460.47 259.899 -462.67 C 261.326 -463.51 262.753 -464.35 264.18 -465.18 C 264.801 -465.56 265.422 -465.94 266.062 -466.33 C 269.862 -468.54 271.691 -468.89 275.867 -467.68 Z" style="fill: rgb(255, 103, 0);"/>
  <path d="M 275.867 -428.68 C 278.349 -427.51 278.349 -427.51 280.981 -426.02 C 281.969 -425.46 282.957 -424.9 283.975 -424.33 C 285.561 -423.42 285.561 -423.42 287.18 -422.5 C 288.288 -421.87 289.396 -421.24 290.537 -420.6 C 299.015 -415.78 307.436 -410.87 315.843 -405.94 C 322.969 -401.76 330.151 -397.7 337.367 -393.68 C 346.64 -388.52 355.829 -383.24 364.982 -377.87 C 373.695 -372.76 382.479 -367.79 391.278 -362.84 C 399.306 -358.31 407.3 -353.73 415.297 -349.15 C 417.841 -347.7 420.387 -346.25 422.934 -344.79 C 432.448 -339.37 441.946 -333.91 451.43 -328.43 C 460.667 -323.1 469.917 -317.79 479.18 -312.5 C 480.066 -311.99 480.066 -311.99 480.971 -311.47 C 485.887 -308.67 490.804 -305.86 495.721 -303.06 C 507.074 -296.58 518.406 -290.07 529.723 -283.53 C 537.758 -278.89 545.809 -274.28 553.867 -269.68 C 563.955 -263.93 574.023 -258.14 584.078 -252.33 C 591.995 -247.76 599.928 -243.22 607.867 -238.68 C 616.881 -233.54 625.882 -228.38 634.867 -223.18 C 647.333 -215.98 659.831 -208.84 672.335 -201.7 C 675.849 -199.69 679.362 -197.69 682.875 -195.68 C 683.453 -195.35 684.03 -195.02 684.625 -194.68 C 687.534 -193.02 690.444 -191.35 693.354 -189.69 C 699.259 -186.31 705.167 -182.94 711.078 -179.58 C 716.902 -176.26 722.718 -172.94 728.529 -169.6 C 730.76 -168.32 732.994 -167.04 735.23 -165.77 C 738.365 -163.98 741.492 -162.18 744.617 -160.37 C 746.03 -159.57 746.03 -159.57 747.47 -158.76 C 748.318 -158.26 749.166 -157.77 750.039 -157.26 C 750.783 -156.83 751.526 -156.4 752.292 -155.96 C 752.812 -155.54 753.332 -155.12 753.867 -154.68 C 753.867 -153.69 753.867 -152.7 753.867 -151.68 C 753.199 -151.31 752.531 -150.94 751.842 -150.56 C 736.115 -141.83 736.115 -141.83 720.555 -132.81 C 713.266 -128.48 705.918 -124.26 698.555 -120.06 C 697.96 -119.72 697.364 -119.38 696.751 -119.03 C 691.853 -116.23 686.953 -113.44 682.053 -110.65 C 677.907 -108.29 673.762 -105.92 669.617 -103.56 C 669.035 -103.23 668.454 -102.89 667.854 -102.55 C 659.767 -97.937 651.713 -93.268 643.68 -88.559 C 634.6 -83.236 625.443 -78.066 616.246 -72.947 C 608.842 -68.816 601.498 -64.591 594.18 -60.309 C 592.683 -59.437 592.683 -59.437 591.155 -58.547 C 586.887 -56.058 582.634 -53.554 578.43 -50.958 C 577.784 -50.566 577.137 -50.175 576.472 -49.771 C 574.831 -48.776 573.202 -47.762 571.574 -46.747 C 568.867 -45.684 568.867 -45.684 566.493 -46.451 C 563.958 -47.642 561.562 -48.924 559.149 -50.344 C 558.232 -50.882 557.314 -51.419 556.369 -51.973 C 554.883 -52.851 554.883 -52.851 553.367 -53.747 C 551.796 -54.669 551.796 -54.669 550.194 -55.61 C 547.932 -56.938 545.671 -58.267 543.41 -59.599 C 539.836 -61.703 536.259 -63.802 532.68 -65.899 C 532.08 -66.251 531.48 -66.602 530.861 -66.965 C 529.643 -67.679 528.424 -68.393 527.206 -69.107 C 525.357 -70.19 523.509 -71.274 521.662 -72.357 C 510.075 -79.153 498.473 -85.921 486.867 -92.684 C 468.562 -103.35 450.278 -114.06 432.003 -124.78 C 409.929 -137.73 387.849 -150.66 365.693 -163.47 C 364.976 -163.89 364.259 -164.3 363.519 -164.73 C 362.974 -165.04 362.429 -165.36 361.867 -165.68 C 360.628 -141.45 360.651 -117.2 360.564 -92.936 C 360.542 -87.038 360.515 -81.14 360.488 -75.243 C 360.439 -64.12 360.393 -52.996 360.35 -41.873 C 360.3 -29.191 360.246 -16.508 360.19 -3.826 C 360.077 22.221 359.97 48.269 359.867 74.316 C 358.826 74.897 358.826 74.897 357.763 75.49 C 354.547 77.285 351.332 79.082 348.117 80.878 C 347.026 81.487 345.934 82.097 344.809 82.724 C 337.447 86.841 330.139 91.042 322.867 95.316 C 313.506 100.808 304.078 106.165 294.59 111.435 C 293.625 111.972 292.659 112.509 291.664 113.062 C 290.719 113.585 289.773 114.108 288.799 114.647 C 286.714 115.834 284.652 117.062 282.608 118.316 C 281.544 118.967 280.479 119.618 279.383 120.289 C 278.422 120.891 277.46 121.493 276.47 122.113 C 273.867 123.316 273.867 123.316 271.906 123.208 C 269.087 121.975 266.423 120.561 263.731 119.07 C 262.843 118.58 262.843 118.58 261.938 118.081 C 260.016 117.018 258.098 115.949 256.18 114.878 C 254.846 114.138 253.512 113.398 252.178 112.658 C 244.872 108.596 237.604 104.478 230.425 100.194 C 222.298 95.351 214.061 90.698 205.836 86.023 C 186.651 75.1 186.651 75.1 184.867 73.316 C 184.769 70.231 184.738 67.169 184.747 64.084 C 184.746 62.613 184.746 62.613 184.745 61.112 C 184.743 57.798 184.748 54.485 184.754 51.171 C 184.754 48.806 184.754 46.442 184.753 44.077 C 184.753 38.305 184.758 32.534 184.764 26.762 C 184.771 20.048 184.773 13.335 184.774 6.621 C 184.776 -5.352 184.783 -17.325 184.792 -29.299 C 184.801 -40.932 184.808 -52.566 184.813 -64.2 C 184.813 -65.275 184.813 -65.275 184.813 -66.372 C 184.815 -69.966 184.816 -73.561 184.817 -77.156 C 184.827 -107 184.845 -136.84 184.867 -166.68 C 181.312 -164.63 177.756 -162.58 174.201 -160.53 C 172.995 -159.84 171.788 -159.14 170.582 -158.45 C 161.782 -153.37 152.998 -148.27 144.242 -143.12 C 141.799 -141.69 139.355 -140.25 136.91 -138.82 C 136.314 -138.47 135.718 -138.12 135.103 -137.76 C 129.26 -134.33 123.409 -130.91 117.555 -127.5 C 116.58 -126.93 115.606 -126.36 114.602 -125.78 C 110.725 -123.52 106.847 -121.25 102.97 -119 C 86.253 -109.25 69.557 -99.47 52.867 -89.684 C 47.93 -86.788 42.993 -83.892 38.055 -80.997 C 37.452 -80.643 36.848 -80.289 36.226 -79.924 C 29.983 -76.263 23.738 -72.606 17.485 -68.961 C 16.474 -68.372 15.462 -67.782 14.421 -67.175 C 12.453 -66.03 10.484 -64.886 8.513 -63.746 C 3.52 -60.849 -1.429 -57.898 -6.336 -54.856 C -7.341 -54.24 -8.346 -53.624 -9.381 -52.99 C -11.294 -51.814 -13.199 -50.624 -15.093 -49.417 C -16.371 -48.637 -16.371 -48.637 -17.676 -47.84 C -18.79 -47.141 -18.79 -47.141 -19.926 -46.428 C -22.133 -45.684 -22.133 -45.684 -24.581 -46.37 C -27.219 -47.729 -29.834 -49.101 -32.422 -50.555 C -33.435 -51.124 -34.449 -51.692 -35.494 -52.278 C -36.571 -52.886 -37.648 -53.495 -38.758 -54.122 C -39.879 -54.753 -41.001 -55.384 -42.156 -56.034 C -50.998 -61.019 -59.791 -66.083 -68.562 -71.19 C -73.559 -74.094 -78.564 -76.983 -83.57 -79.872 C -84.664 -80.503 -85.759 -81.135 -86.886 -81.785 C -95.545 -86.778 -104.22 -91.74 -112.9 -96.693 C -122.4 -102.11 -131.88 -107.57 -141.34 -113.04 C -148.67 -117.27 -156.02 -121.48 -163.37 -125.68 C -166.86 -127.67 -170.35 -129.67 -173.85 -131.66 C -176.84 -133.37 -179.82 -135.08 -182.82 -136.78 C -186.4 -138.83 -189.99 -140.88 -193.57 -142.93 C -194.66 -143.55 -195.75 -144.17 -196.87 -144.81 C -198.39 -145.69 -198.39 -145.69 -199.94 -146.57 C -200.83 -147.08 -201.71 -147.59 -202.62 -148.11 C -205.3 -149.79 -207.7 -151.67 -210.13 -153.68 C -200.32 -159.5 -190.46 -165.23 -180.55 -170.88 C -173.54 -174.87 -166.55 -178.9 -159.57 -182.93 C -150.99 -187.89 -142.39 -192.83 -133.78 -197.74 C -124.54 -203 -115.31 -208.31 -106.13 -213.68 C -88.977 -223.72 -71.701 -233.55 -54.383 -243.31 C -45.691 -248.21 -37.064 -253.21 -28.455 -258.25 C -17.251 -264.8 -5.974 -271.23 5.303 -277.65 C 10.579 -280.66 15.851 -283.67 21.123 -286.69 C 24.029 -288.35 26.934 -290.01 29.84 -291.67 C 31.006 -292.33 32.171 -293 33.337 -293.67 C 36.002 -295.19 36.002 -295.19 38.667 -296.71 C 39.877 -297.4 41.087 -298.1 42.297 -298.79 C 43.505 -299.48 44.713 -300.17 45.922 -300.86 C 48.9 -302.56 51.877 -304.26 54.855 -305.96 C 60.029 -308.92 65.203 -311.88 70.379 -314.83 C 79.744 -320.17 89.094 -325.54 98.43 -330.93 C 111.032 -338.21 123.665 -345.44 136.304 -352.65 C 142.9 -356.42 149.493 -360.18 156.087 -363.95 C 161.85 -367.25 167.613 -370.54 173.379 -373.83 C 182.744 -379.17 192.094 -384.54 201.43 -389.93 C 220.457 -400.92 239.528 -411.83 258.675 -422.61 C 259.99 -423.35 259.99 -423.35 261.332 -424.11 C 262.539 -424.78 262.539 -424.78 263.769 -425.47 C 265.451 -426.44 267.078 -427.51 268.684 -428.6 C 271.571 -430.03 272.789 -429.53 275.867 -428.68 Z" style=""/>
  <path d="M 445.867 114.316 C 445.867 155.236 445.867 196.156 445.867 238.316 C 424.867 250.316 424.867 250.316 421.867 251.316 C 421.537 221.616 421.207 191.916 420.867 161.316 C 417.996 171.077 415.139 180.824 412.43 190.628 C 409.595 200.82 406.611 210.959 403.541 221.083 C 402.724 223.793 401.924 226.509 401.131 229.227 C 400.746 230.538 400.357 231.848 399.964 233.157 C 398.704 237.362 397.525 241.581 396.406 245.827 C 395.683 248.543 394.931 251.251 394.177 253.959 C 393.808 255.308 393.451 256.659 393.107 258.014 C 389.989 270.248 389.989 270.248 384.281 274.089 C 382.83 274.87 381.36 275.617 379.867 276.316 C 378.754 276.955 377.64 277.595 376.492 278.253 C 373.867 279.316 373.867 279.316 370.867 278.316 C 369.484 275.755 368.286 273.255 367.129 270.593 C 366.767 269.783 366.405 268.972 366.032 268.137 C 364.863 265.514 363.709 262.884 362.555 260.253 C 361.821 258.601 361.086 256.95 360.35 255.298 C 353.106 239.008 346.006 222.653 338.867 206.316 C 338.902 207.467 338.936 208.618 338.971 209.804 C 339.279 220.69 339.476 231.573 339.564 242.462 C 339.613 248.061 339.701 253.653 339.879 259.25 C 340.995 295.538 340.995 295.538 335.749 303.552 C 330.148 308.757 322.643 312.316 314.867 312.316 C 314.657 296.383 314.498 280.45 314.401 264.515 C 314.355 257.116 314.292 249.718 314.188 242.32 C 314.099 235.87 314.041 229.422 314.021 222.972 C 314.009 219.557 313.981 216.144 313.916 212.729 C 313.851 208.915 313.842 205.103 313.846 201.288 C 313.813 200.16 313.781 199.031 313.748 197.868 C 313.837 190.368 313.837 190.368 316.831 187.311 C 319.119 185.766 321.382 184.511 323.867 183.316 C 325.395 182.388 325.395 182.388 326.953 181.441 C 329.879 179.768 332.808 178.1 335.742 176.441 C 336.774 175.848 337.805 175.255 338.867 174.644 C 339.855 174.085 340.842 173.525 341.86 172.949 C 343.195 172.189 343.195 172.189 344.558 171.414 C 346.867 170.316 346.867 170.316 349.867 170.316 C 359.933 192.287 369.945 214.28 379.867 236.316 C 382.72 229.606 384.927 222.934 386.742 215.878 C 388.852 207.907 391.131 200.025 393.687 192.185 C 395.929 185.28 397.895 178.302 399.867 171.316 C 401.22 166.545 402.575 161.774 403.93 157.003 C 404.268 155.807 404.607 154.61 404.955 153.376 C 405.615 151.057 406.287 148.742 406.973 146.431 C 407.517 144.538 408.015 142.63 408.429 140.705 C 409.893 134.664 412.8 132.264 417.992 128.995 C 418.941 128.441 419.89 127.887 420.867 127.316 C 421.837 126.735 422.806 126.154 423.805 125.555 C 426.805 123.789 429.829 122.077 432.867 120.378 C 433.903 119.79 434.938 119.202 436.004 118.595 C 443.608 114.316 443.608 114.316 445.867 114.316 Z" style=""/>
  <path d="M -184.13 -46.684 C -177.71 -44.542 -172.19 -41.612 -166.36 -38.247 C -165.13 -37.54 -163.89 -36.846 -162.64 -36.165 C -150.96 -29.781 -150.96 -29.781 -148.51 -23.833 C -148.01 -22.128 -147.55 -20.41 -147.13 -18.684 C -146.57 -16.914 -146 -15.146 -145.42 -13.379 C -144.86 -11.524 -144.31 -9.667 -143.76 -7.809 C -143.46 -6.813 -143.16 -5.817 -142.85 -4.791 C -142.24 -2.746 -141.63 -0.699 -141.02 1.347 C -140.19 4.12 -139.36 6.89 -138.52 9.66 C -137.05 14.543 -135.59 19.428 -134.13 24.316 C -133.91 25.05 -133.69 25.784 -133.47 26.541 C -131.33 33.725 -129.23 40.916 -127.26 48.148 C -124.85 56.984 -122.13 65.66 -119.13 74.316 C -116.48 71.668 -115.33 68.577 -113.86 65.195 C -113.54 64.471 -113.22 63.747 -112.89 63.001 C -112.2 61.441 -111.51 59.879 -110.83 58.317 C -109.75 55.873 -108.68 53.431 -107.6 50.99 C -104.5 43.979 -101.41 36.961 -98.342 29.937 C -97.503 28.017 -96.661 26.099 -95.818 24.181 C -94.794 21.85 -93.776 19.516 -92.764 17.179 C -92.311 16.148 -91.857 15.117 -91.39 14.054 C -91 13.157 -90.61 12.261 -90.207 11.337 C -89.133 9.316 -89.133 9.316 -87.133 8.316 C -85.061 9.193 -85.061 9.193 -82.511 10.597 C -81.575 11.11 -80.638 11.623 -79.674 12.152 C -78.691 12.701 -77.708 13.25 -76.695 13.816 C -75.747 14.334 -74.799 14.852 -73.822 15.386 C -70.902 16.998 -68.004 18.619 -65.133 20.316 C -64.249 20.742 -63.365 21.167 -62.454 21.606 C -54.747 25.71 -54.747 25.71 -53.131 29.935 C -52.777 33.168 -52.77 36.243 -52.884 39.493 C -52.881 41.309 -52.881 41.309 -52.879 43.161 C -52.885 46.466 -52.94 49.762 -53.017 53.065 C -53.086 56.521 -53.092 59.978 -53.106 63.435 C -53.14 69.973 -53.23 76.51 -53.34 83.047 C -53.464 90.493 -53.524 97.939 -53.579 105.386 C -53.694 120.697 -53.887 136.006 -54.133 151.316 C -59.206 149.323 -63.71 146.796 -68.383 144.003 C -69.624 143.293 -69.624 143.293 -70.89 142.568 C -71.677 142.097 -72.463 141.626 -73.273 141.14 C -73.99 140.718 -74.707 140.296 -75.446 139.862 C -77.755 137.745 -77.709 136.429 -78.133 133.316 C -78.221 130.395 -78.259 127.499 -78.246 124.578 C -78.246 123.71 -78.246 122.841 -78.247 121.946 C -78.246 119.083 -78.238 116.221 -78.23 113.359 C -78.228 111.371 -78.227 109.382 -78.226 107.394 C -78.222 102.168 -78.212 96.942 -78.201 91.716 C -78.191 86.38 -78.186 81.044 -78.181 75.708 C -78.171 65.244 -78.154 54.78 -78.133 44.316 C -78.57 45.328 -79.008 46.34 -79.459 47.382 C -89.683 71.027 -99.91 94.671 -110.13 118.316 C -111.06 118.003 -111.99 117.691 -112.95 117.369 C -114.98 116.695 -117.03 116.058 -119.1 115.468 C -123.9 113.505 -127.06 111.636 -129.25 106.894 C -131.41 100.587 -132.85 94.095 -134.33 87.602 C -135.53 82.689 -137.1 77.923 -138.69 73.128 C -141.34 65.026 -143.67 56.876 -145.86 48.642 C -147.66 41.923 -149.64 35.273 -151.69 28.628 C -153.96 21.308 -156.11 13.973 -158.07 6.566 C -158.28 5.774 -158.49 4.981 -158.71 4.165 C -159.5 1.136 -160.13 -1.541 -160.13 -4.684 C -160.79 -4.684 -161.45 -4.684 -162.13 -4.684 C -162.1 -3.684 -162.07 -2.684 -162.04 -1.654 C -161.14 28.673 -161.01 58.977 -161.13 89.316 C -169.16 86.104 -176.57 81.515 -184.13 77.316 C -184.13 36.396 -184.13 -4.524 -184.13 -46.684 Z" style=""/>
  <path d="M 16.867 68.316 C 17.897 68.867 18.927 69.418 19.988 69.986 C 21.353 70.716 22.718 71.445 24.082 72.175 C 25.098 72.718 25.098 72.718 26.134 73.273 C 29.543 75.094 32.967 76.862 36.43 78.578 C 41.577 81.917 43.504 87.698 45.867 93.128 C 46.824 95.24 47.782 97.351 48.742 99.46 C 49.238 100.562 49.733 101.664 50.244 102.799 C 52.636 107.98 55.211 113.063 57.779 118.158 C 61.314 125.177 64.745 132.248 68.18 139.316 C 68.547 140.07 68.913 140.824 69.291 141.601 C 74.43 152.174 79.47 162.783 84.292 173.505 C 87.317 180.217 90.566 186.713 93.867 193.316 C 94.197 166.916 94.527 140.516 94.867 113.316 C 103.41 117.587 111.575 122.577 119.867 127.316 C 119.867 168.236 119.867 209.156 119.867 251.316 C 101.833 242.299 95.149 237.711 87.492 220.753 C 86.841 219.354 86.187 217.955 85.531 216.558 C 84.225 213.768 82.93 210.973 81.645 208.174 C 79.299 203.068 76.866 198.005 74.43 192.941 C 73.556 191.11 72.682 189.28 71.809 187.449 C 67.565 178.581 63.263 169.741 58.963 160.9 C 53.212 149.063 47.546 137.189 41.867 125.316 C 41.867 152.046 41.867 178.776 41.867 206.316 C 38.364 204.914 35.465 203.615 32.258 201.75 C 31.421 201.264 30.585 200.779 29.723 200.279 C 28.863 199.775 28.003 199.272 27.117 198.753 C 26.242 198.246 25.367 197.739 24.465 197.216 C 18.01 193.458 18.01 193.458 16.867 192.316 C 16.771 190.709 16.746 189.098 16.747 187.488 C 16.746 186.443 16.744 185.399 16.743 184.322 C 16.747 183.166 16.75 182.011 16.754 180.82 C 16.754 179.61 16.754 178.4 16.753 177.154 C 16.754 173.828 16.759 170.502 16.766 167.175 C 16.772 163.703 16.773 160.23 16.774 156.757 C 16.777 150.177 16.785 143.597 16.795 137.016 C 16.807 129.527 16.812 122.037 16.817 114.548 C 16.828 99.137 16.845 83.726 16.867 68.316 Z" style=""/>
  <path d="M 558.867 49.316 C 558.961 59.923 559.032 70.529 559.075 81.136 C 559.095 86.064 559.123 90.991 559.169 95.918 C 559.213 100.691 559.237 105.463 559.247 110.235 C 559.254 112.038 559.268 113.842 559.29 115.645 C 559.403 125.315 558.945 134.542 557.077 144.051 C 556.92 144.855 556.762 145.659 556.6 146.487 C 553.847 159.199 547.003 170.314 538.867 180.316 C 538.204 181.155 537.54 181.994 536.856 182.859 C 525.449 196.459 508.036 207.232 490.309 209.667 C 483.898 210.038 479.759 208.436 474.867 204.316 C 468.829 198.114 467.418 191.669 467.416 183.355 C 467.404 182.486 467.392 181.616 467.38 180.721 C 467.347 177.866 467.336 175.011 467.328 172.156 C 467.316 170.162 467.304 168.169 467.291 166.175 C 467.268 162.005 467.259 157.835 467.257 153.665 C 467.251 148.326 467.2 142.988 467.137 137.65 C 467.096 133.536 467.087 129.423 467.086 125.309 C 467.081 123.341 467.064 121.372 467.036 119.404 C 466.999 116.651 467.007 113.901 467.025 111.148 C 467.005 110.339 466.984 109.53 466.963 108.696 C 467.026 105.283 467.158 103.161 469.4 100.49 C 472.421 97.86 475.645 95.615 479.199 93.761 C 480.303 93.181 480.303 93.181 481.428 92.589 C 482.171 92.21 482.914 91.831 483.68 91.441 C 484.442 91.039 485.205 90.637 485.99 90.222 C 491.581 87.316 491.581 87.316 493.867 87.316 C 493.88 88.871 493.88 88.871 493.892 90.458 C 493.97 100.242 494.057 110.026 494.155 119.81 C 494.205 124.84 494.251 129.869 494.289 134.899 C 494.326 139.756 494.373 144.612 494.425 149.468 C 494.444 151.319 494.459 153.169 494.471 155.019 C 494.488 157.617 494.517 160.213 494.549 162.81 C 494.551 163.571 494.553 164.331 494.555 165.114 C 494.64 170.563 494.831 176.28 498.867 180.316 C 506.925 181.164 513.198 178.62 519.555 173.691 C 526.449 167.324 531.452 157.763 531.979 148.322 C 532.037 143.403 531.833 138.49 531.636 133.574 C 531.462 128.783 531.397 123.989 531.315 119.195 C 531.207 113.124 531.067 107.059 530.794 100.993 C 529.319 66.994 529.319 66.994 535.28 60.06 C 541.409 54.725 550.444 49.316 558.867 49.316 Z" style=""/>
  <path d="M 648.43 7.441 C 654.054 11.767 656.013 17.444 657.493 24.148 C 656.868 27.316 656.868 27.316 655.148 28.782 C 652.687 30.305 650.187 31.671 647.618 33.003 C 645.883 33.943 644.148 34.884 642.415 35.828 C 641.64 36.235 640.865 36.642 640.066 37.061 C 637.809 38.284 637.809 38.284 635.709 39.971 C 633.868 41.316 633.868 41.316 631.868 41.316 C 630.548 39.006 629.228 36.696 627.868 34.316 C 620.904 33.956 617.196 35.124 611.305 39.003 C 606.763 43.313 603.601 47.655 603.305 54.066 C 603.509 56.873 603.877 58.334 605.18 60.878 C 611.165 64.079 618.317 62.492 624.743 61.316 C 633.234 59.77 642.779 58.777 650.868 62.316 C 655.506 66.232 657.649 69.069 658.239 75.117 C 658.789 95.16 651.354 111.556 637.868 126.316 C 626.138 138.57 609.218 149.225 591.993 150.003 C 587.553 149.83 584.258 149.621 580.68 146.878 C 576.272 142.038 573.798 136.164 572.993 129.691 C 573.154 126.703 573.572 125.627 575.653 123.441 C 578.302 121.511 581 119.904 583.868 118.316 C 584.718 117.831 584.718 117.831 585.585 117.337 C 596.15 111.316 596.15 111.316 598.868 111.316 C 599.171 111.942 599.474 112.569 599.786 113.214 C 602.307 118.176 602.307 118.176 606.118 122.128 C 612.314 122.551 617.531 118.839 622.18 115.066 C 627.713 109.854 630.054 105.138 630.305 97.503 C 630.301 94.652 630.256 92.94 628.747 90.511 C 623.213 86.991 613.628 89.02 607.493 90.316 C 602.824 91.273 598.307 91.604 593.555 91.691 C 592.239 91.719 590.923 91.748 589.567 91.777 C 585.253 91.239 583.183 90.087 579.868 87.316 C 574.798 80.47 575.129 72.531 576.27 64.476 C 579.048 50.952 586.694 39.393 595.868 29.316 C 596.442 28.673 597.015 28.029 597.606 27.367 C 609.961 14.246 629.868 1.579 648.43 7.441 Z" style=""/>
  <path d="M 741.867 -57.684 C 742.527 -57.684 743.187 -57.684 743.867 -57.684 C 745.397 -50.095 746.589 -42.104 743.867 -34.684 C 738.42 -28.607 730.423 -25.512 723.114 -22.208 C 718.207 -19.904 713.626 -17.113 708.992 -14.309 C 701.193 -9.684 701.193 -9.684 698.867 -9.684 C 698.867 -0.774 698.867 8.136 698.867 17.316 C 701.899 15.583 704.931 13.851 708.055 12.066 C 709.068 11.488 710.081 10.91 711.125 10.314 C 716.047 7.505 720.963 4.686 725.867 1.847 C 726.821 1.297 727.775 0.747 728.757 0.18 C 730.603 -0.885 732.447 -1.953 734.288 -3.025 C 735.54 -3.746 735.54 -3.746 736.817 -4.481 C 737.552 -4.907 738.288 -5.334 739.046 -5.773 C 740.867 -6.684 740.867 -6.684 742.867 -6.684 C 743.159 -3.144 743.336 0.393 743.492 3.941 C 743.576 4.94 743.66 5.939 743.746 6.968 C 743.847 10.017 743.761 12.395 742.867 15.316 C 739.968 18.175 736.528 19.608 732.867 21.316 C 730.718 22.54 728.579 23.783 726.449 25.042 C 724.193 26.343 721.937 27.642 719.68 28.941 C 717.975 29.923 717.975 29.923 716.237 30.925 C 715.131 31.562 714.026 32.199 712.887 32.855 C 711.841 33.474 710.795 34.094 709.718 34.732 C 706.867 36.316 706.867 36.316 704.542 37.166 C 702.308 37.876 702.308 37.876 699.867 40.316 C 698.859 45.065 698.889 49.726 698.93 54.566 C 698.914 55.883 698.898 57.201 698.881 58.558 C 698.846 61.812 698.842 65.062 698.867 68.316 C 710.645 61.961 722.38 55.565 733.875 48.707 C 734.607 48.275 735.339 47.843 736.094 47.398 C 737.047 46.829 737.047 46.829 738.018 46.249 C 739.951 45.274 741.754 44.759 743.867 44.316 C 744.79 51.589 745.603 59.117 743.867 66.316 C 740.32 70.532 736.346 72.161 731.323 74.233 C 726.664 76.287 722.332 78.955 717.93 81.503 C 715.962 82.612 713.993 83.719 712.024 84.824 C 704.61 89.01 697.267 93.317 689.936 97.647 C 688.527 98.475 688.527 98.475 687.09 99.32 C 686.273 99.803 685.456 100.285 684.614 100.783 C 682.33 102.058 680.036 103.248 677.696 104.412 C 676.619 104.948 676.619 104.948 675.521 105.495 C 674.702 105.901 674.702 105.901 673.867 106.316 C 673.516 90.304 673.252 74.294 673.09 58.279 C 673.013 50.843 672.908 43.409 672.736 35.973 C 672.586 29.49 672.489 23.008 672.456 16.523 C 672.437 13.09 672.391 9.663 672.281 6.232 C 671.687 -14.653 671.687 -14.653 675.303 -19.679 C 678.757 -22.801 682.564 -24.511 686.941 -25.978 C 690.073 -27.126 692.765 -28.843 695.614 -30.571 C 697.843 -31.839 700.074 -33.106 702.305 -34.372 C 704.728 -35.75 707.149 -37.131 709.571 -38.512 C 710.175 -38.857 710.779 -39.202 711.402 -39.557 C 717.805 -43.213 724.184 -46.91 730.555 -50.622 C 731.582 -51.219 732.61 -51.816 733.668 -52.431 C 734.604 -52.977 735.54 -53.524 736.504 -54.086 C 737.326 -54.566 738.148 -55.045 738.995 -55.539 C 740.81 -56.548 740.81 -56.548 741.867 -57.684 Z" style=""/>
  <path d="M 131.867 135.316 C 136.687 136.716 140.737 138.843 144.992 141.441 C 146.506 142.348 148.02 143.253 149.535 144.156 C 150.376 144.657 151.217 145.158 152.084 145.675 C 157.457 148.843 162.884 151.917 168.305 155.003 C 170.708 156.373 173.11 157.743 175.512 159.113 C 176.114 159.456 176.716 159.8 177.337 160.154 C 185.198 164.642 193.034 169.174 200.869 173.707 C 201.892 174.299 202.915 174.89 203.969 175.5 C 204.87 176.021 205.77 176.542 206.698 177.079 C 208.068 177.86 209.457 178.611 210.867 179.316 C 210.867 186.906 210.867 194.496 210.867 202.316 C 201.728 198.66 193.414 193.2 184.867 188.316 C 184.867 221.316 184.867 254.316 184.867 288.316 C 175.554 285.212 165.677 281.722 158.867 274.316 C 155.482 267.059 156.536 258.615 156.914 250.832 C 156.952 248.562 156.98 246.292 157 244.022 C 157.076 238.08 157.272 232.147 157.494 226.209 C 157.7 220.136 157.79 214.063 157.891 207.988 C 158.105 196.093 158.445 184.205 158.867 172.316 C 158.094 172.013 157.32 171.71 156.522 171.398 C 153.808 170.292 151.362 168.988 148.821 167.531 C 147.894 167 146.967 166.47 146.012 165.923 C 145.057 165.372 144.102 164.821 143.117 164.253 C 142.147 163.698 141.176 163.144 140.176 162.572 C 133.008 158.456 133.008 158.456 131.867 157.316 C 131.78 155.681 131.76 154.043 131.77 152.406 C 131.773 151.416 131.776 150.427 131.78 149.408 C 131.788 148.367 131.796 147.326 131.805 146.253 C 131.809 145.209 131.814 144.164 131.819 143.087 C 131.83 140.497 131.847 137.906 131.867 135.316 Z" style=""/>
  <path d="M -31.133 41.316 C -26.13 43.317 -21.635 45.696 -16.945 48.316 C -16.126 48.767 -15.307 49.218 -14.463 49.683 C -13.68 50.119 -12.896 50.555 -12.09 51.003 C -11.378 51.399 -10.666 51.795 -9.933 52.203 C -8.133 53.316 -8.133 53.316 -6.133 55.316 C -5.886 57.483 -5.886 57.483 -5.892 60.226 C -5.889 61.264 -5.887 62.301 -5.884 63.37 C -5.891 64.513 -5.898 65.656 -5.906 66.834 C -5.905 68.034 -5.905 69.234 -5.905 70.47 C -5.906 73.766 -5.916 77.061 -5.93 80.356 C -5.942 83.798 -5.943 87.24 -5.946 90.682 C -5.952 97.202 -5.968 103.722 -5.989 110.242 C -6.011 117.664 -6.022 125.086 -6.032 132.508 C -6.053 147.777 -6.088 163.047 -6.133 178.316 C -14.853 174.828 -22.903 169.842 -31.133 165.316 C -31.133 124.396 -31.133 83.476 -31.133 41.316 Z" style=""/>
</svg>